<svg width="42" height="42" viewBox="0 0 42 42" fill="none" xmlns="http://www.w3.org/2000/svg">
<rect width="42" height="42" rx="2" fill="black"/>
<path d="M21 5C17.8355 5 14.7421 5.93838 12.1109 7.69649C9.47969 9.45459 7.42893 11.9534 6.21793 14.8771C5.00693 17.8007 4.69007 21.0177 5.30743 24.1214C5.9248 27.2251 7.44865 30.0761 9.68629 32.3137C11.9239 34.5513 14.7749 36.0752 17.8786 36.6926C20.9822 37.3099 24.1993 36.9931 27.1229 35.7821C30.0465 34.5711 32.5454 32.5203 34.3035 29.8891C36.0616 27.2579 37 24.1645 37 21L29 21C29 22.5823 28.5308 24.129 27.6518 25.4446C26.7727 26.7602 25.5233 27.7855 24.0615 28.391C22.5997 28.9965 20.9911 29.155 19.4393 28.8463C17.8874 28.5376 16.462 27.7757 15.3431 26.6569C14.2243 25.538 13.4624 24.1126 13.1537 22.5607C12.845 21.0089 13.0035 19.4003 13.609 17.9385C14.2145 16.4767 15.2398 15.2273 16.5554 14.3482C17.871 13.4692 19.4177 13 21 13L21 5Z" fill="white"/>
<path d="M21 5C18.8989 5 16.8183 5.41385 14.8771 6.21793C12.9359 7.022 11.172 8.20055 9.68629 9.68629C8.20055 11.172 7.022 12.9359 6.21793 14.8771C5.41385 16.8183 5 18.8989 5 21L13 21C13 19.9494 13.2069 18.9091 13.609 17.9385C14.011 16.9679 14.6003 16.086 15.3431 15.3431C16.086 14.6003 16.9679 14.011 17.9385 13.609C18.9091 13.2069 19.9494 13 21 13L21 5Z" fill="#5CE1E6"/>
<circle cx="21" cy="21" r="5" fill="#5CE1E6"/>
<path d="M26 21C26 20.3434 25.8707 19.6932 25.6194 19.0866C25.3681 18.48 24.9998 17.9288 24.5355 17.4645C24.0712 17.0002 23.52 16.6319 22.9134 16.3806C22.3068 16.1293 21.6566 16 21 16C20.3434 16 19.6932 16.1293 19.0866 16.3806C18.48 16.6319 17.9288 17.0002 17.4645 17.4645C17.0002 17.9288 16.6319 18.48 16.3806 19.0866C16.1293 19.6932 16 20.3434 16 21L21 21H26Z" fill="white"/>
</svg>
